<svg width="24" height="25" viewBox="0 0 24 25" fill="none" xmlns="http://www.w3.org/2000/svg">
<path d="M8.38028 9.35434C9.07626 10.8039 10.0251 12.1626 11.2266 13.3642C12.4282 14.5657 13.7869 15.5145 15.2366 16.2105C15.3612 16.2705 15.4235 16.3003 15.5024 16.3233C15.7829 16.405 16.127 16.3464 16.3644 16.1763C16.4313 16.1284 16.4885 16.0713 16.6028 15.957C16.9523 15.6073 17.1272 15.4326 17.303 15.3183C17.9658 14.8873 18.8204 14.8873 19.4834 15.3183C19.6592 15.4326 19.8339 15.6073 20.1836 15.957L20.3783 16.1518C20.9099 16.6833 21.1755 16.9491 21.3198 17.2344C21.6069 17.802 21.6069 18.4723 21.3198 19.0398C21.1755 19.3252 20.9099 19.5909 20.3783 20.1223L20.2208 20.28C19.6911 20.8096 19.4264 21.0744 19.0662 21.2767C18.6668 21.5011 18.0462 21.6625 17.588 21.6612C17.1752 21.66 16.8929 21.5799 16.3284 21.4197C13.295 20.5587 10.4326 18.934 8.04465 16.546C5.65668 14.1582 4.03221 11.2958 3.17124 8.26241C3.01103 7.69798 2.93091 7.41574 2.9297 7.0028C2.92833 6.54457 3.08969 5.92408 3.3141 5.52458C3.51636 5.16455 3.78117 4.89973 4.31079 4.37011L4.46843 4.21249C4.99986 3.68104 5.2656 3.41531 5.55098 3.27097C6.11853 2.9839 6.78879 2.9839 7.35636 3.27097C7.64174 3.41531 7.90746 3.68104 8.43891 4.21249L8.63378 4.40735C8.98338 4.75696 9.15819 4.93175 9.27246 5.10754C9.70347 5.77042 9.70347 6.625 9.27246 7.28789C9.15819 7.46368 8.98338 7.63849 8.63378 7.98808C8.51946 8.10239 8.46231 8.15956 8.41446 8.22637C8.24445 8.46379 8.18576 8.80805 8.26748 9.0884C8.29047 9.1673 8.32041 9.22964 8.38028 9.35434Z" stroke="#7986CB" stroke-width="2" stroke-linecap="round" stroke-linejoin="round"/>
</svg>
