<svg width="24" height="25" viewBox="0 0 24 25" fill="none" xmlns="http://www.w3.org/2000/svg">
<path d="M21.5 18.5012L14.8571 12.5012M9.14288 12.5012L2.50006 18.5012M2.00002 7.50122L10.1649 13.2166C10.8261 13.6795 11.1567 13.9109 11.5163 14.0005C11.8339 14.0797 12.1661 14.0797 12.4837 14.0005C12.8433 13.9109 13.1739 13.6795 13.8351 13.2166L22.0001 7.50122M6.80002 20.5012H17.2001C18.8802 20.5012 19.7202 20.5012 20.3621 20.1742C20.9265 19.8866 21.3854 19.4276 21.6731 18.8632C22.0001 18.2213 22.0001 17.3813 22.0001 15.7012V9.30122C22.0001 7.62106 22.0001 6.78098 21.6731 6.13925C21.3854 5.57476 20.9265 5.11582 20.3621 4.82821C19.7202 4.50122 18.8802 4.50122 17.2001 4.50122H6.80002C5.11987 4.50122 4.27978 4.50122 3.63805 4.82821C3.07357 5.11582 2.61463 5.57476 2.327 6.13925C2.00002 6.78098 2.00002 7.62106 2.00002 9.30122V15.7012C2.00002 17.3813 2.00002 18.2213 2.327 18.8632C2.61463 19.4276 3.07357 19.8866 3.63805 20.1742C4.27978 20.5012 5.11987 20.5012 6.80002 20.5012Z" stroke="#7986CB" stroke-width="2" stroke-linecap="round" stroke-linejoin="round"/>
</svg>
